<svg id="check-square" xmlns="http://www.w3.org/2000/svg" width="16" height="16" viewBox="0 0 16 16">
  <path id="Контур_17" data-name="Контур 17" d="M14,1a1,1,0,0,1,1,1V14a1,1,0,0,1-1,1H2a1,1,0,0,1-1-1V2A1,1,0,0,1,2,1ZM2,0A2,2,0,0,0,0,2V14a2,2,0,0,0,2,2H14a2,2,0,0,0,2-2V2a2,2,0,0,0-2-2Z" fill="#151a40"/>
  <path id="Контур_18" data-name="Контур 18" d="M10.97,4.97a.75.75,0,1,1,1.071,1.05L8.049,11.01a.75.75,0,0,1-1.08.02L4.324,8.384a.75.75,0,1,1,1.06-1.06L7.478,9.417l3.473-4.425.02-.022Z" fill="#151a40"/>
</svg>
