<svg id="x-lg_1_" data-name="x-lg (1)" xmlns="http://www.w3.org/2000/svg" width="16" height="16" viewBox="0 0 16 16">
  <path id="Контур_7" data-name="Контур 7" d="M17.8,2.195a.667.667,0,0,1,0,.944L3.139,17.8a.667.667,0,0,1-.944-.944L16.859,2.195a.667.667,0,0,1,.944,0Z" transform="translate(-1.999 -1.999)" fill="#fff" fill-rule="evenodd"/>
  <path id="Контур_8" data-name="Контур 8" d="M2.195,2.195a.667.667,0,0,0,0,.944L16.859,17.8a.667.667,0,0,0,.944-.944L3.139,2.195a.667.667,0,0,0-.944,0Z" transform="translate(-1.999 -1.999)" fill="#fff" fill-rule="evenodd"/>
</svg>
