<svg xmlns="http://www.w3.org/2000/svg" width="20" height="16" viewBox="0 0 20 16">
                        <path id="list"
                            d="M22.5,18.611a.9.9,0,0,0-.909-.889H3.409a.889.889,0,1,0,0,1.778H21.591A.9.9,0,0,0,22.5,18.611Zm0-7.111a.9.9,0,0,0-.909-.889H3.409a.889.889,0,1,0,0,1.778H21.591A.9.9,0,0,0,22.5,11.5Zm0-7.111a.9.9,0,0,0-.909-.889H3.409a.889.889,0,1,0,0,1.778H21.591A.9.9,0,0,0,22.5,4.389Z"
                            transform="translate(-2.5 -3.5)" fill="#fff" fill-rule="evenodd" />
                    </svg>